PathFileType	4	(X/Y/Z)	c:\Git\powerlifing_model_clean\simulations\HC835B\Session1\HC835B_CUT_0003\marker_experimental.trc
DataRate	CameraRate	NumFrames	NumMarkers	Units	OrigDataRate	OrigDataStartFrame	OrigNumFrames
240.000000	240.000000	4	38	mm	240.000000	0	81
Frame#	Time	RPSI			LPSI			RASI			LASI			RTH1			RTH2			RTH3			RTH4			RSK1			RSK2			RSK3			RSK4			RCAL1			RCAL2			RCAL3			RST			RPT			RTN			RFMB			RSMB			RVMB			RFMH			RSMH			RVMH			RPM			LTH1			LTH2			LTH3			LTH4			LSK1			LSK2			LSK3			LSK4			LCAL1			LCAL2			LCAL3			LFMH			LVMH			
		X1	Y1	Z1	X2	Y2	Z2	X3	Y3	Z3	X4	Y4	Z4	X5	Y5	Z5	X6	Y6	Z6	X7	Y7	Z7	X8	Y8	Z8	X9	Y9	Z9	X10	Y10	Z10	X11	Y11	Z11	X12	Y12	Z12	X13	Y13	Z13	X14	Y14	Z14	X15	Y15	Z15	X16	Y16	Z16	X17	Y17	Z17	X18	Y18	Z18	X19	Y19	Z19	X20	Y20	Z20	X21	Y21	Z21	X22	Y22	Z22	X23	Y23	Z23	X24	Y24	Z24	X25	Y25	Z25	X26	Y26	Z26	X27	Y27	Z27	X28	Y28	Z28	X29	Y29	Z29	X30	Y30	Z30	X31	Y31	Z31	X32	Y32	Z32	X33	Y33	Z33	X34	Y34	Z34	X35	Y35	Z35	X36	Y36	Z36	X37	Y37	Z37	X38	Y38	Z38	

1	0	322.8499145507813	1059.044067382813	350.4378356933594	215.6139373779297	1039.734619140625	384.3753967285157	300.0211791992188	1019.440673828125	133.6763000488282	100.6061553955078	949.5354614257815	221.0652923583985	451.9683532714845	831.2301025390627	44.92564773559571	429.6958618164064	855.6135253906252	-5.968982696533204	452.7412109375001	783.1939086914065	-24.45077323913575	421.9952392578126	801.2527465820315	-71.13293457031251	568.8523559570314	394.4875793457032	-85.6027069091797	569.0654907226564	385.1625976562501	-146.243637084961	586.2462768554689	342.1344909667969	-106.4266510009766	573.1062622070314	328.8448486328126	-163.3562927246094	600.1515502929689	186.1345672607422	-54.00711822509767	576.1987915039064	141.8487701416016	-59.07763671875001	638.8408203125001	156.6155395507813	-61.86821746826173	553.7304687500001	148.9156646728516	-126.4551849365235	654.0166625976564	169.6599426269532	-123.8878631591797	556.4039306640626	167.0911560058594	-184.7622680664063	563.2930297851564	147.7852020263672	-215.9765625000001	602.5238037109376	180.3394165039063	-229.9721221923829	666.5178833007814	143.1129913330078	-168.0170288085938	563.1846923828126	116.3816680908203	-267.8208007812501	610.1752929687501	140.7663116455078	-286.0526123046876	687.1659545898439	126.2887496948242	-246.4243774414063	600.0605468750001	127.3794555664063	-343.4779357910157	190.1145172119141	689.7232055664064	406.347381591797	179.9623107910157	656.7399902343751	355.9096069335938	219.4896697998047	614.3325805664064	403.3483886718751	226.1127929687501	584.7608642578126	350.0932006835938	472.4258117675782	369.5002746582032	677.9086303710939	476.548309326172	320.0875549316407	661.2155151367189	499.6673889160157	329.7030639648438	701.9487915039064	515.7883300781251	283.3113708496094	676.1981811523439	624.3169555664064	318.7955627441407	803.6909790039065	615.2154541015626	295.4441833496094	844.6232910156252	668.3473510742189	308.2067260742188	820.538513183594	688.0174560546876	116.1680297851563	714.4335327148439	608.3001098632814	110.0708694458008	788.2938232421877	
2	0.004166666666666667	320.1814270019532	1060.288452148438	329.6595153808594	213.239730834961	1041.14453125	364.5769042968751	294.2795104980469	1018.820739746094	113.8771438598633	96.1125183105469	949.9177246093752	202.9639282226563	450.0312805175782	828.7227172851565	25.08003616333009	425.7771911621095	851.2139892578127	-25.79704284667969	450.5729370117189	779.0842895507815	-43.26823806762696	417.4429626464845	794.8210449218752	-89.05393981933595	568.0405273437501	388.5509338378907	-113.4372100830078	564.5534057617189	380.3247985839844	-174.139144897461	584.5423583984376	336.8191833496094	-136.4803161621094	568.2535400390626	324.4237365722657	-192.7083435058594	599.6089477539064	179.04443359375	-88.08946990966798	574.7294921875001	135.6202087402344	-92.45332336425783	637.4187622070314	149.4989166259766	-97.47624206542972	550.7267456054689	144.2609100341797	-159.9965972900391	650.8975219726564	164.131332397461	-159.4535827636719	551.8675537109376	163.4813232421875	-217.1944122314454	557.7590332031251	145.3380889892578	-249.6772155761719	596.8520507812501	178.0078430175782	-263.9156799316407	662.2410278320314	138.8093719482422	-204.5744323730469	556.3208618164064	115.119125366211	-302.1647949218751	602.8993530273439	139.8282165527344	-320.9342956542969	680.6235351562501	123.9008483886719	-283.8835754394532	591.0794067382814	127.9648056030274	-378.7008056640626	186.7171020507813	689.1685180664064	386.5421752929689	176.169189453125	656.4603881835939	337.3875427246094	219.3114318847657	611.2677001953126	384.8696899414064	219.9539489746094	583.7976684570314	330.3447875976563	467.046844482422	376.5345153808594	660.6536254882814	471.2894897460939	326.4337768554688	645.9362792968751	494.5860900878907	337.9884948730469	686.2492065429689	510.4496154785157	290.6577758789063	662.6137084960939	622.3217773437501	331.6213378906251	786.9531250000002	613.0800781250001	310.8272399902344	829.1098632812502	665.9780883789064	320.3013000488282	803.5346679687502	677.0148925781251	122.5046691894532	707.1813964843751	598.3878784179689	123.3115310668946	782.4460449218752	
3	0.008333333333333333	317.4317016601563	1061.203002929688	308.9502868652344	210.8584442138672	1042.295654296875	344.9302978515626	288.6825561523438	1017.925231933594	94.17212677001955	91.42049407958986	950.2980957031252	184.7647552490235	448.3917846679689	826.0914306640627	5.177366733551026	421.8649291992189	846.5559692382815	-45.43607711791993	448.3279418945314	774.8582153320315	-61.96568679809572	412.7150878906251	788.033874511719	-106.7209243774414	568.6295776367189	383.3439331054688	-140.8937377929688	560.3070068359376	375.6989746093751	-201.2299499511719	582.2575683593751	331.6766662597657	-165.2482147216797	563.1557617187501	320.0922241210938	-220.8688354492188	598.6620483398439	172.8120880126953	-120.3438873291016	573.2695922851564	129.7256622314453	-124.9664459228516	636.0221557617189	143.32080078125	-131.3069610595703	547.7124633789064	140.0048828125	-191.6241302490235	647.8743286132814	159.166015625	-193.2135620117188	548.2167968750001	160.0106658935547	-248.0091552734376	552.4262084960939	142.9697265625	-281.6015930175782	591.3688964843751	175.7990112304688	-296.4633789062501	658.0889892578126	134.7598571777344	-239.2233428955079	550.1093139648439	113.6099090576172	-334.2287292480469	595.8198852539064	138.7028045654297	-354.0390014648438	674.2810058593751	121.3823394775391	-319.3008422851563	582.5554199218751	128.1687927246094	-411.7167358398439	182.6051025390625	688.2492065429689	366.9531860351563	170.3383026123047	656.0096435546876	317.6287841796876	214.1712646484376	610.0663452148439	364.7029724121094	213.9996337890626	582.5042724609376	310.2380065917969	461.711151123047	383.8581542968751	642.5044555664064	466.1683349609376	332.5582275390626	628.8983764648439	489.4160156250001	346.3823547363282	669.6907348632814	505.7890014648439	297.8335266113282	646.7594604492189	619.3109130859376	344.3230895996094	769.0303955078127	609.9392700195314	326.0087585449219	812.424011230469	662.8073120117189	332.4286804199219	785.6147460937502	665.7084960937501	129.407455444336	699.6112670898439	588.3086547851564	137.190185546875	775.4443359375002	
4	0.0125	314.5969238281251	1061.825317382813	288.2886352539063	208.3097076416016	1042.788696289063	324.7928466796876	283.0830688476563	1017.247497558594	74.59426879882814	86.6954803466797	950.5135498046877	166.6845397949219	446.5534973144532	823.3843994140627	-14.6039457321167	417.9356994628907	841.7919921875002	-64.91755676269533	445.8481445312501	770.3463134765627	-80.40462493896486	408.205047607422	781.162292480469	-124.0588912963867	567.9746093750001	378.1730346679688	-167.467269897461	555.9669189453126	371.1513977050782	-227.2858123779297	580.2351684570314	326.8306884765626	-193.0322723388672	558.1839599609376	315.9752197265626	-247.9140167236329	597.7390747070314	167.3055419921875	-150.9562683105469	572.1879272460939	124.7093200683594	-155.5446472167969	634.6857299804689	137.8914947509766	-163.3385772705078	544.9272460937501	135.8780364990235	-221.6673736572266	644.4819335937501	154.484130859375	-225.0662994384766	544.1292724609376	157.0414428710938	-277.5599060058594	547.3353881835939	140.4241027832032	-311.5771179199219	586.2418823242189	173.1778564453125	-326.5577697753907	654.0074462890626	131.0022583007813	-271.8958435058594	543.7214355468751	111.8855056762696	-364.4821166992188	589.0960693359376	137.1194915771485	-385.0708312988282	668.2772827148439	118.9798431396485	-352.5596618652344	574.3240966796876	127.6869506835938	-442.6607055664064	178.3663177490235	686.6083374023439	346.7388916015626	164.7972412109375	655.0723876953126	297.2367553710938	209.1647644042969	608.0310058593751	343.8614501953126	207.8613586425782	580.9095458984376	289.1986694335938	456.3698120117189	391.3081359863282	623.3226318359376	460.3853149414064	339.5440673828126	612.1056518554689	484.0794372558595	355.1348266601563	652.0178833007814	500.1656188964845	304.9884948730469	631.0977783203126	615.4187622070314	356.7891845703126	749.9841308593751	606.1935424804689	341.0666198730469	794.4486083984377	658.5414428710939	344.3287048339844	766.8273315429689	654.9584960937501	137.1782989501953	691.5678100585939	578.0895996093751	151.3846588134766	767.4963378906251	
